<mxfile host="app.diagrams.net" agent="Mozilla/5.0 (Windows NT 10.0; Win64; x64; rv:132.0) Gecko/20100101 Firefox/132.0" version="24.8.6">
  <diagram name="Page-1" id="PaM3hAsv0p1LVPKVbNv6">
    <mxGraphModel dx="1193" dy="783" grid="1" gridSize="10" guides="1" tooltips="1" connect="1" arrows="1" fold="1" page="1" pageScale="1" pageWidth="850" pageHeight="1100" math="0" shadow="0">
      <root>
        <mxCell id="0" />
        <mxCell id="1" parent="0" />
        <mxCell id="-R4UiotYeWdrvrbhJRBY-1" value="Bot" style="shape=umlActor;verticalLabelPosition=bottom;verticalAlign=top;html=1;outlineConnect=0;" parent="1" vertex="1">
          <mxGeometry x="120" y="210" width="30" height="60" as="geometry" />
        </mxCell>
        <mxCell id="-R4UiotYeWdrvrbhJRBY-2" value="&lt;div&gt;&lt;u&gt;&amp;lt;&amp;lt;Controller&amp;gt;&amp;gt;&lt;/u&gt;&lt;/div&gt;&lt;div&gt;&lt;u&gt;:TradingHandler&lt;/u&gt;&lt;br&gt;&lt;/div&gt;" style="shape=umlLifeline;perimeter=lifelinePerimeter;whiteSpace=wrap;html=1;container=1;dropTarget=0;collapsible=0;recursiveResize=0;outlineConnect=0;portConstraint=eastwest;newEdgeStyle={&quot;curved&quot;:0,&quot;rounded&quot;:0};fillColor=#f5f5f5;strokeColor=#666666;gradientColor=#b3b3b3;" parent="1" vertex="1">
          <mxGeometry x="325" y="210" width="100" height="300" as="geometry" />
        </mxCell>
        <mxCell id="-R4UiotYeWdrvrbhJRBY-14" value="" style="html=1;points=[[0,0,0,0,5],[0,1,0,0,-5],[1,0,0,0,5],[1,1,0,0,-5]];perimeter=orthogonalPerimeter;outlineConnect=0;targetShapes=umlLifeline;portConstraint=eastwest;newEdgeStyle={&quot;curved&quot;:0,&quot;rounded&quot;:0};" parent="-R4UiotYeWdrvrbhJRBY-2" vertex="1">
          <mxGeometry x="45" y="110" width="10" height="160" as="geometry" />
        </mxCell>
        <mxCell id="-R4UiotYeWdrvrbhJRBY-9" value="" style="endArrow=none;dashed=1;endFill=0;endSize=12;html=1;rounded=0;" parent="1" source="-R4UiotYeWdrvrbhJRBY-13" edge="1">
          <mxGeometry width="160" relative="1" as="geometry">
            <mxPoint x="134.78" y="300" as="sourcePoint" />
            <mxPoint x="135" y="526.2222222222222" as="targetPoint" />
          </mxGeometry>
        </mxCell>
        <mxCell id="-R4UiotYeWdrvrbhJRBY-12" value="" style="endArrow=none;dashed=1;endFill=0;endSize=12;html=1;rounded=0;" parent="1" target="-R4UiotYeWdrvrbhJRBY-13" edge="1">
          <mxGeometry width="160" relative="1" as="geometry">
            <mxPoint x="134.78" y="300" as="sourcePoint" />
            <mxPoint x="135" y="526.2222222222222" as="targetPoint" />
          </mxGeometry>
        </mxCell>
        <mxCell id="-R4UiotYeWdrvrbhJRBY-13" value="" style="html=1;points=[[0,0,0,0,5],[0,1,0,0,-5],[1,0,0,0,5],[1,1,0,0,-5]];perimeter=orthogonalPerimeter;outlineConnect=0;targetShapes=umlLifeline;portConstraint=eastwest;newEdgeStyle={&quot;curved&quot;:0,&quot;rounded&quot;:0};" parent="1" vertex="1">
          <mxGeometry x="130" y="320" width="10" height="160" as="geometry" />
        </mxCell>
        <mxCell id="-R4UiotYeWdrvrbhJRBY-15" value="&lt;u&gt;:User&lt;/u&gt;" style="shape=umlLifeline;perimeter=lifelinePerimeter;whiteSpace=wrap;html=1;container=1;dropTarget=0;collapsible=0;recursiveResize=0;outlineConnect=0;portConstraint=eastwest;newEdgeStyle={&quot;curved&quot;:0,&quot;rounded&quot;:0};fillColor=#f5f5f5;strokeColor=#666666;gradientColor=#b3b3b3;" parent="1" vertex="1">
          <mxGeometry x="570" y="210" width="100" height="300" as="geometry" />
        </mxCell>
        <mxCell id="-R4UiotYeWdrvrbhJRBY-16" value="" style="html=1;points=[[0,0,0,0,5],[0,1,0,0,-5],[1,0,0,0,5],[1,1,0,0,-5]];perimeter=orthogonalPerimeter;outlineConnect=0;targetShapes=umlLifeline;portConstraint=eastwest;newEdgeStyle={&quot;curved&quot;:0,&quot;rounded&quot;:0};" parent="-R4UiotYeWdrvrbhJRBY-15" vertex="1">
          <mxGeometry x="45" y="110" width="10" height="160" as="geometry" />
        </mxCell>
        <mxCell id="-R4UiotYeWdrvrbhJRBY-17" value="&lt;u&gt;:AiModel&lt;/u&gt;" style="shape=umlLifeline;perimeter=lifelinePerimeter;whiteSpace=wrap;html=1;container=1;dropTarget=0;collapsible=0;recursiveResize=0;outlineConnect=0;portConstraint=eastwest;newEdgeStyle={&quot;curved&quot;:0,&quot;rounded&quot;:0};fillColor=#f5f5f5;strokeColor=#666666;gradientColor=#b3b3b3;" parent="1" vertex="1">
          <mxGeometry x="830" y="210" width="100" height="300" as="geometry" />
        </mxCell>
        <mxCell id="-R4UiotYeWdrvrbhJRBY-18" value="" style="html=1;points=[[0,0,0,0,5],[0,1,0,0,-5],[1,0,0,0,5],[1,1,0,0,-5]];perimeter=orthogonalPerimeter;outlineConnect=0;targetShapes=umlLifeline;portConstraint=eastwest;newEdgeStyle={&quot;curved&quot;:0,&quot;rounded&quot;:0};" parent="-R4UiotYeWdrvrbhJRBY-17" vertex="1">
          <mxGeometry x="45" y="110" width="10" height="160" as="geometry" />
        </mxCell>
        <mxCell id="-R4UiotYeWdrvrbhJRBY-19" value="predictPrice(setOfData)" style="html=1;verticalAlign=bottom;endArrow=block;curved=0;rounded=0;" parent="1" target="-R4UiotYeWdrvrbhJRBY-14" edge="1">
          <mxGeometry width="80" relative="1" as="geometry">
            <mxPoint x="140" y="340" as="sourcePoint" />
            <mxPoint x="220" y="340" as="targetPoint" />
          </mxGeometry>
        </mxCell>
        <mxCell id="-R4UiotYeWdrvrbhJRBY-20" value="predictPrice(setOfData)" style="html=1;verticalAlign=bottom;endArrow=block;curved=0;rounded=0;" parent="1" edge="1">
          <mxGeometry width="80" relative="1" as="geometry">
            <mxPoint x="380" y="359.52" as="sourcePoint" />
            <mxPoint x="615" y="359.52" as="targetPoint" />
          </mxGeometry>
        </mxCell>
        <mxCell id="-R4UiotYeWdrvrbhJRBY-21" value="predictPrice(setOfData)" style="html=1;verticalAlign=bottom;endArrow=block;curved=0;rounded=0;entryX=-0.074;entryY=0.11;entryDx=0;entryDy=0;entryPerimeter=0;" parent="1" edge="1">
          <mxGeometry width="80" relative="1" as="geometry">
            <mxPoint x="625" y="380.00000000000006" as="sourcePoint" />
            <mxPoint x="874.26" y="380.00000000000006" as="targetPoint" />
          </mxGeometry>
        </mxCell>
        <mxCell id="-R4UiotYeWdrvrbhJRBY-22" value="Prediction result" style="html=1;verticalAlign=bottom;endArrow=block;curved=0;rounded=0;dashed=1;" parent="1" source="-R4UiotYeWdrvrbhJRBY-18" target="-R4UiotYeWdrvrbhJRBY-16" edge="1">
          <mxGeometry width="80" relative="1" as="geometry">
            <mxPoint x="870" y="400" as="sourcePoint" />
            <mxPoint x="630" y="399.52000000000004" as="targetPoint" />
          </mxGeometry>
        </mxCell>
        <mxCell id="-R4UiotYeWdrvrbhJRBY-23" value="Prediction result" style="html=1;verticalAlign=bottom;endArrow=block;curved=0;rounded=0;dashed=1;" parent="1" source="-R4UiotYeWdrvrbhJRBY-16" edge="1">
          <mxGeometry width="80" relative="1" as="geometry">
            <mxPoint x="610" y="420" as="sourcePoint" />
            <mxPoint x="380" y="420" as="targetPoint" />
          </mxGeometry>
        </mxCell>
        <mxCell id="-R4UiotYeWdrvrbhJRBY-24" value="Prediction result" style="html=1;verticalAlign=bottom;endArrow=block;curved=0;rounded=0;dashed=1;" parent="1" edge="1">
          <mxGeometry width="80" relative="1" as="geometry">
            <mxPoint x="370" y="440" as="sourcePoint" />
            <mxPoint x="140" y="440" as="targetPoint" />
          </mxGeometry>
        </mxCell>
        <mxCell id="-R4UiotYeWdrvrbhJRBY-113" value="User" style="shape=umlActor;verticalLabelPosition=bottom;verticalAlign=top;html=1;outlineConnect=0;" parent="1" vertex="1">
          <mxGeometry x="120" y="666.22" width="30" height="60" as="geometry" />
        </mxCell>
        <mxCell id="-R4UiotYeWdrvrbhJRBY-114" value="&lt;div&gt;&lt;u&gt;&amp;lt;&amp;lt;Controller&amp;gt;&amp;gt;&lt;/u&gt;&lt;/div&gt;&lt;div&gt;&lt;u&gt;:TradingHandler&lt;/u&gt;&lt;br&gt;&lt;/div&gt;" style="shape=umlLifeline;perimeter=lifelinePerimeter;whiteSpace=wrap;html=1;container=1;dropTarget=0;collapsible=0;recursiveResize=0;outlineConnect=0;portConstraint=eastwest;newEdgeStyle={&quot;curved&quot;:0,&quot;rounded&quot;:0};fillColor=#f5f5f5;gradientColor=#b3b3b3;strokeColor=#666666;" parent="1" vertex="1">
          <mxGeometry x="290" y="666.22" width="100" height="300" as="geometry" />
        </mxCell>
        <mxCell id="-R4UiotYeWdrvrbhJRBY-115" value="" style="html=1;points=[[0,0,0,0,5],[0,1,0,0,-5],[1,0,0,0,5],[1,1,0,0,-5]];perimeter=orthogonalPerimeter;outlineConnect=0;targetShapes=umlLifeline;portConstraint=eastwest;newEdgeStyle={&quot;curved&quot;:0,&quot;rounded&quot;:0};" parent="-R4UiotYeWdrvrbhJRBY-114" vertex="1">
          <mxGeometry x="45" y="110" width="10" height="160" as="geometry" />
        </mxCell>
        <mxCell id="-R4UiotYeWdrvrbhJRBY-116" value="" style="endArrow=none;dashed=1;endFill=0;endSize=12;html=1;rounded=0;" parent="1" source="-R4UiotYeWdrvrbhJRBY-118" edge="1">
          <mxGeometry width="160" relative="1" as="geometry">
            <mxPoint x="134.77999999999997" y="756.22" as="sourcePoint" />
            <mxPoint x="135" y="982.4422222222222" as="targetPoint" />
          </mxGeometry>
        </mxCell>
        <mxCell id="-R4UiotYeWdrvrbhJRBY-117" value="" style="endArrow=none;dashed=1;endFill=0;endSize=12;html=1;rounded=0;" parent="1" target="-R4UiotYeWdrvrbhJRBY-118" edge="1">
          <mxGeometry width="160" relative="1" as="geometry">
            <mxPoint x="134.77999999999997" y="756.22" as="sourcePoint" />
            <mxPoint x="135" y="982.4422222222222" as="targetPoint" />
          </mxGeometry>
        </mxCell>
        <mxCell id="-R4UiotYeWdrvrbhJRBY-118" value="" style="html=1;points=[[0,0,0,0,5],[0,1,0,0,-5],[1,0,0,0,5],[1,1,0,0,-5]];perimeter=orthogonalPerimeter;outlineConnect=0;targetShapes=umlLifeline;portConstraint=eastwest;newEdgeStyle={&quot;curved&quot;:0,&quot;rounded&quot;:0};" parent="1" vertex="1">
          <mxGeometry x="130" y="776.22" width="10" height="160" as="geometry" />
        </mxCell>
        <mxCell id="-R4UiotYeWdrvrbhJRBY-119" value="&lt;u&gt;:User&lt;/u&gt;" style="shape=umlLifeline;perimeter=lifelinePerimeter;whiteSpace=wrap;html=1;container=1;dropTarget=0;collapsible=0;recursiveResize=0;outlineConnect=0;portConstraint=eastwest;newEdgeStyle={&quot;curved&quot;:0,&quot;rounded&quot;:0};fillColor=#f5f5f5;gradientColor=#b3b3b3;strokeColor=#666666;" parent="1" vertex="1">
          <mxGeometry x="590" y="666.22" width="100" height="300" as="geometry" />
        </mxCell>
        <mxCell id="-R4UiotYeWdrvrbhJRBY-120" value="" style="html=1;points=[[0,0,0,0,5],[0,1,0,0,-5],[1,0,0,0,5],[1,1,0,0,-5]];perimeter=orthogonalPerimeter;outlineConnect=0;targetShapes=umlLifeline;portConstraint=eastwest;newEdgeStyle={&quot;curved&quot;:0,&quot;rounded&quot;:0};" parent="-R4UiotYeWdrvrbhJRBY-119" vertex="1">
          <mxGeometry x="45" y="110" width="10" height="160" as="geometry" />
        </mxCell>
        <mxCell id="-R4UiotYeWdrvrbhJRBY-121" value="&lt;div&gt;createNewUser(name,e-mail,&lt;/div&gt;&lt;div&gt;password,phone)&lt;br&gt;&lt;/div&gt;" style="html=1;verticalAlign=bottom;endArrow=block;curved=0;rounded=0;" parent="1" target="-R4UiotYeWdrvrbhJRBY-115" edge="1">
          <mxGeometry width="80" relative="1" as="geometry">
            <mxPoint x="140" y="796.22" as="sourcePoint" />
            <mxPoint x="220" y="796.22" as="targetPoint" />
          </mxGeometry>
        </mxCell>
        <mxCell id="-R4UiotYeWdrvrbhJRBY-122" value="&lt;div&gt;createNewUser(name,e-mail,&lt;/div&gt;password,phone)" style="html=1;verticalAlign=bottom;endArrow=block;curved=0;rounded=0;" parent="1" target="-R4UiotYeWdrvrbhJRBY-120" edge="1">
          <mxGeometry width="80" relative="1" as="geometry">
            <mxPoint x="345" y="815.8900000000001" as="sourcePoint" />
            <mxPoint x="630" y="815.8899999999999" as="targetPoint" />
          </mxGeometry>
        </mxCell>
        <mxCell id="-R4UiotYeWdrvrbhJRBY-125" value="User created" style="html=1;verticalAlign=bottom;endArrow=block;curved=0;rounded=0;dashed=1;" parent="1" edge="1">
          <mxGeometry width="80" relative="1" as="geometry">
            <mxPoint x="635" y="906.05" as="sourcePoint" />
            <mxPoint x="345" y="906.05" as="targetPoint" />
          </mxGeometry>
        </mxCell>
        <mxCell id="-R4UiotYeWdrvrbhJRBY-126" value="User created" style="html=1;verticalAlign=bottom;endArrow=block;curved=0;rounded=0;dashed=1;" parent="1" edge="1">
          <mxGeometry width="80" relative="1" as="geometry">
            <mxPoint x="330" y="926.22" as="sourcePoint" />
            <mxPoint x="140" y="926.22" as="targetPoint" />
          </mxGeometry>
        </mxCell>
        <mxCell id="-R4UiotYeWdrvrbhJRBY-129" value="" style="shape=datastore;whiteSpace=wrap;html=1;fillColor=#f5f5f5;gradientColor=#b3b3b3;strokeColor=#666666;" parent="1" vertex="1">
          <mxGeometry x="800" y="650" width="60" height="60" as="geometry" />
        </mxCell>
        <mxCell id="-R4UiotYeWdrvrbhJRBY-130" value="" style="endArrow=none;dashed=1;endFill=0;endSize=12;html=1;rounded=0;" parent="1" source="-R4UiotYeWdrvrbhJRBY-132" edge="1">
          <mxGeometry width="160" relative="1" as="geometry">
            <mxPoint x="829.7799999999997" y="740" as="sourcePoint" />
            <mxPoint x="830" y="966.2222222222222" as="targetPoint" />
          </mxGeometry>
        </mxCell>
        <mxCell id="-R4UiotYeWdrvrbhJRBY-131" value="" style="endArrow=none;dashed=1;endFill=0;endSize=12;html=1;rounded=0;" parent="1" target="-R4UiotYeWdrvrbhJRBY-132" edge="1">
          <mxGeometry width="160" relative="1" as="geometry">
            <mxPoint x="829.7799999999997" y="740" as="sourcePoint" />
            <mxPoint x="830" y="966.2222222222222" as="targetPoint" />
          </mxGeometry>
        </mxCell>
        <mxCell id="-R4UiotYeWdrvrbhJRBY-132" value="" style="html=1;points=[[0,0,0,0,5],[0,1,0,0,-5],[1,0,0,0,5],[1,1,0,0,-5]];perimeter=orthogonalPerimeter;outlineConnect=0;targetShapes=umlLifeline;portConstraint=eastwest;newEdgeStyle={&quot;curved&quot;:0,&quot;rounded&quot;:0};" parent="1" vertex="1">
          <mxGeometry x="825" y="760" width="10" height="160" as="geometry" />
        </mxCell>
        <mxCell id="-R4UiotYeWdrvrbhJRBY-133" value="&lt;u&gt;:Database&lt;/u&gt;" style="text;html=1;align=center;verticalAlign=middle;resizable=0;points=[];autosize=1;strokeColor=none;fillColor=none;" parent="1" vertex="1">
          <mxGeometry x="790" y="710" width="80" height="30" as="geometry" />
        </mxCell>
        <mxCell id="-R4UiotYeWdrvrbhJRBY-134" value="writeDB(uAc)" style="html=1;verticalAlign=bottom;endArrow=block;curved=0;rounded=0;" parent="1" source="-R4UiotYeWdrvrbhJRBY-120" edge="1">
          <mxGeometry width="80" relative="1" as="geometry">
            <mxPoint x="650" y="839.22" as="sourcePoint" />
            <mxPoint x="825" y="839.6200000000001" as="targetPoint" />
          </mxGeometry>
        </mxCell>
        <mxCell id="-R4UiotYeWdrvrbhJRBY-135" value="User created" style="html=1;verticalAlign=bottom;endArrow=block;curved=0;rounded=0;dashed=1;" parent="1" target="-R4UiotYeWdrvrbhJRBY-120" edge="1">
          <mxGeometry width="80" relative="1" as="geometry">
            <mxPoint x="825" y="880" as="sourcePoint" />
            <mxPoint x="655" y="880" as="targetPoint" />
          </mxGeometry>
        </mxCell>
        <mxCell id="-R4UiotYeWdrvrbhJRBY-138" value="User" style="shape=umlActor;verticalLabelPosition=bottom;verticalAlign=top;html=1;outlineConnect=0;" parent="1" vertex="1">
          <mxGeometry x="120" y="1086.22" width="30" height="60" as="geometry" />
        </mxCell>
        <mxCell id="-R4UiotYeWdrvrbhJRBY-139" value="&lt;div&gt;&lt;u&gt;&amp;lt;&amp;lt;Controller&amp;gt;&amp;gt;&lt;/u&gt;&lt;/div&gt;&lt;div&gt;&lt;u&gt;:TradingHandler&lt;/u&gt;&lt;br&gt;&lt;/div&gt;" style="shape=umlLifeline;perimeter=lifelinePerimeter;whiteSpace=wrap;html=1;container=1;dropTarget=0;collapsible=0;recursiveResize=0;outlineConnect=0;portConstraint=eastwest;newEdgeStyle={&quot;curved&quot;:0,&quot;rounded&quot;:0};fillColor=#f5f5f5;gradientColor=#b3b3b3;strokeColor=#666666;" parent="1" vertex="1">
          <mxGeometry x="290" y="1086.22" width="100" height="483.78" as="geometry" />
        </mxCell>
        <mxCell id="-R4UiotYeWdrvrbhJRBY-140" value="" style="html=1;points=[[0,0,0,0,5],[0,1,0,0,-5],[1,0,0,0,5],[1,1,0,0,-5]];perimeter=orthogonalPerimeter;outlineConnect=0;targetShapes=umlLifeline;portConstraint=eastwest;newEdgeStyle={&quot;curved&quot;:0,&quot;rounded&quot;:0};" parent="-R4UiotYeWdrvrbhJRBY-139" vertex="1">
          <mxGeometry x="45" y="110" width="10" height="160" as="geometry" />
        </mxCell>
        <mxCell id="-R4UiotYeWdrvrbhJRBY-141" value="" style="endArrow=none;dashed=1;endFill=0;endSize=12;html=1;rounded=0;" parent="1" source="-R4UiotYeWdrvrbhJRBY-164" edge="1">
          <mxGeometry width="160" relative="1" as="geometry">
            <mxPoint x="134.77999999999997" y="1176.22" as="sourcePoint" />
            <mxPoint x="135" y="1570" as="targetPoint" />
          </mxGeometry>
        </mxCell>
        <mxCell id="-R4UiotYeWdrvrbhJRBY-142" value="" style="endArrow=none;dashed=1;endFill=0;endSize=12;html=1;rounded=0;" parent="1" target="-R4UiotYeWdrvrbhJRBY-143" edge="1">
          <mxGeometry width="160" relative="1" as="geometry">
            <mxPoint x="134.77999999999997" y="1176.22" as="sourcePoint" />
            <mxPoint x="135" y="1402.4422222222222" as="targetPoint" />
          </mxGeometry>
        </mxCell>
        <mxCell id="-R4UiotYeWdrvrbhJRBY-143" value="" style="html=1;points=[[0,0,0,0,5],[0,1,0,0,-5],[1,0,0,0,5],[1,1,0,0,-5]];perimeter=orthogonalPerimeter;outlineConnect=0;targetShapes=umlLifeline;portConstraint=eastwest;newEdgeStyle={&quot;curved&quot;:0,&quot;rounded&quot;:0};" parent="1" vertex="1">
          <mxGeometry x="130" y="1196.22" width="10" height="160" as="geometry" />
        </mxCell>
        <mxCell id="-R4UiotYeWdrvrbhJRBY-144" value="&lt;u&gt;:User&lt;/u&gt;" style="shape=umlLifeline;perimeter=lifelinePerimeter;whiteSpace=wrap;html=1;container=1;dropTarget=0;collapsible=0;recursiveResize=0;outlineConnect=0;portConstraint=eastwest;newEdgeStyle={&quot;curved&quot;:0,&quot;rounded&quot;:0};fillColor=#f5f5f5;gradientColor=#b3b3b3;strokeColor=#666666;" parent="1" vertex="1">
          <mxGeometry x="590" y="1086.22" width="100" height="473.78" as="geometry" />
        </mxCell>
        <mxCell id="-R4UiotYeWdrvrbhJRBY-145" value="" style="html=1;points=[[0,0,0,0,5],[0,1,0,0,-5],[1,0,0,0,5],[1,1,0,0,-5]];perimeter=orthogonalPerimeter;outlineConnect=0;targetShapes=umlLifeline;portConstraint=eastwest;newEdgeStyle={&quot;curved&quot;:0,&quot;rounded&quot;:0};" parent="-R4UiotYeWdrvrbhJRBY-144" vertex="1">
          <mxGeometry x="45" y="110" width="10" height="160" as="geometry" />
        </mxCell>
        <mxCell id="-R4UiotYeWdrvrbhJRBY-146" value="login(username,password)" style="html=1;verticalAlign=bottom;endArrow=block;curved=0;rounded=0;" parent="1" target="-R4UiotYeWdrvrbhJRBY-140" edge="1">
          <mxGeometry width="80" relative="1" as="geometry">
            <mxPoint x="140" y="1216.22" as="sourcePoint" />
            <mxPoint x="220" y="1216.22" as="targetPoint" />
          </mxGeometry>
        </mxCell>
        <mxCell id="-R4UiotYeWdrvrbhJRBY-147" value="login(username,password)" style="html=1;verticalAlign=bottom;endArrow=block;curved=0;rounded=0;" parent="1" target="-R4UiotYeWdrvrbhJRBY-145" edge="1">
          <mxGeometry width="80" relative="1" as="geometry">
            <mxPoint x="345" y="1235.89" as="sourcePoint" />
            <mxPoint x="630" y="1235.8899999999999" as="targetPoint" />
          </mxGeometry>
        </mxCell>
        <mxCell id="-R4UiotYeWdrvrbhJRBY-148" value="incorrect username or password" style="html=1;verticalAlign=bottom;endArrow=block;curved=0;rounded=0;dashed=1;" parent="1" edge="1">
          <mxGeometry width="80" relative="1" as="geometry">
            <mxPoint x="635" y="1326.05" as="sourcePoint" />
            <mxPoint x="345" y="1326.05" as="targetPoint" />
          </mxGeometry>
        </mxCell>
        <mxCell id="-R4UiotYeWdrvrbhJRBY-149" value="incorrect username or password" style="html=1;verticalAlign=bottom;endArrow=block;curved=0;rounded=0;dashed=1;" parent="1" target="-R4UiotYeWdrvrbhJRBY-143" edge="1">
          <mxGeometry width="80" relative="1" as="geometry">
            <mxPoint x="335" y="1346.22" as="sourcePoint" />
            <mxPoint x="145" y="1346.22" as="targetPoint" />
          </mxGeometry>
        </mxCell>
        <mxCell id="-R4UiotYeWdrvrbhJRBY-150" value="" style="shape=datastore;whiteSpace=wrap;html=1;fillColor=#f5f5f5;gradientColor=#b3b3b3;strokeColor=#666666;" parent="1" vertex="1">
          <mxGeometry x="800" y="1070" width="60" height="60" as="geometry" />
        </mxCell>
        <mxCell id="-R4UiotYeWdrvrbhJRBY-151" value="" style="endArrow=none;dashed=1;endFill=0;endSize=12;html=1;rounded=0;" parent="1" source="-R4UiotYeWdrvrbhJRBY-153" edge="1">
          <mxGeometry width="160" relative="1" as="geometry">
            <mxPoint x="829.7799999999997" y="1160" as="sourcePoint" />
            <mxPoint x="830" y="1570.6451612903224" as="targetPoint" />
          </mxGeometry>
        </mxCell>
        <mxCell id="-R4UiotYeWdrvrbhJRBY-152" value="" style="endArrow=none;dashed=1;endFill=0;endSize=12;html=1;rounded=0;" parent="1" target="-R4UiotYeWdrvrbhJRBY-153" edge="1">
          <mxGeometry width="160" relative="1" as="geometry">
            <mxPoint x="829.7799999999997" y="1160" as="sourcePoint" />
            <mxPoint x="830" y="1386.2222222222222" as="targetPoint" />
          </mxGeometry>
        </mxCell>
        <mxCell id="-R4UiotYeWdrvrbhJRBY-153" value="" style="html=1;points=[[0,0,0,0,5],[0,1,0,0,-5],[1,0,0,0,5],[1,1,0,0,-5]];perimeter=orthogonalPerimeter;outlineConnect=0;targetShapes=umlLifeline;portConstraint=eastwest;newEdgeStyle={&quot;curved&quot;:0,&quot;rounded&quot;:0};" parent="1" vertex="1">
          <mxGeometry x="825" y="1180" width="10" height="180" as="geometry" />
        </mxCell>
        <mxCell id="-R4UiotYeWdrvrbhJRBY-154" value="&lt;u&gt;:Database&lt;/u&gt;" style="text;html=1;align=center;verticalAlign=middle;resizable=0;points=[];autosize=1;strokeColor=none;fillColor=none;" parent="1" vertex="1">
          <mxGeometry x="790" y="1130" width="80" height="30" as="geometry" />
        </mxCell>
        <mxCell id="-R4UiotYeWdrvrbhJRBY-155" value="&lt;div&gt;checkAccount(username,password)&lt;/div&gt;" style="html=1;verticalAlign=bottom;endArrow=block;curved=0;rounded=0;" parent="1" edge="1">
          <mxGeometry width="80" relative="1" as="geometry">
            <mxPoint x="645" y="1275.77" as="sourcePoint" />
            <mxPoint x="825" y="1275.7700000000002" as="targetPoint" />
          </mxGeometry>
        </mxCell>
        <mxCell id="-R4UiotYeWdrvrbhJRBY-156" value="incorrect username or password" style="html=1;verticalAlign=bottom;endArrow=block;curved=0;rounded=0;dashed=1;" parent="1" target="-R4UiotYeWdrvrbhJRBY-145" edge="1">
          <mxGeometry width="80" relative="1" as="geometry">
            <mxPoint x="825" y="1300" as="sourcePoint" />
            <mxPoint x="655" y="1300" as="targetPoint" />
          </mxGeometry>
        </mxCell>
        <mxCell id="-R4UiotYeWdrvrbhJRBY-158" value="frame" style="shape=umlFrame;whiteSpace=wrap;html=1;pointerEvents=0;" parent="1" vertex="1">
          <mxGeometry x="55" y="1250" width="830" height="300" as="geometry" />
        </mxCell>
        <mxCell id="-R4UiotYeWdrvrbhJRBY-159" value="" style="endArrow=none;html=1;rounded=0;endFill=0;" parent="1" edge="1">
          <mxGeometry width="50" height="50" relative="1" as="geometry">
            <mxPoint x="55" y="1399.68" as="sourcePoint" />
            <mxPoint x="885" y="1399.68" as="targetPoint" />
          </mxGeometry>
        </mxCell>
        <mxCell id="-R4UiotYeWdrvrbhJRBY-160" value="" style="html=1;points=[[0,0,0,0,5],[0,1,0,0,-5],[1,0,0,0,5],[1,1,0,0,-5]];perimeter=orthogonalPerimeter;outlineConnect=0;targetShapes=umlLifeline;portConstraint=eastwest;newEdgeStyle={&quot;curved&quot;:0,&quot;rounded&quot;:0};" parent="1" vertex="1">
          <mxGeometry x="825" y="1430" width="10" height="80" as="geometry" />
        </mxCell>
        <mxCell id="-R4UiotYeWdrvrbhJRBY-161" value="&lt;div&gt;checkAccount(username,password)&lt;/div&gt;" style="html=1;verticalAlign=bottom;endArrow=block;curved=0;rounded=0;" parent="1" edge="1">
          <mxGeometry width="80" relative="1" as="geometry">
            <mxPoint x="645" y="1460" as="sourcePoint" />
            <mxPoint x="825" y="1460.0000000000002" as="targetPoint" />
          </mxGeometry>
        </mxCell>
        <mxCell id="-R4UiotYeWdrvrbhJRBY-162" value="" style="html=1;points=[[0,0,0,0,5],[0,1,0,0,-5],[1,0,0,0,5],[1,1,0,0,-5]];perimeter=orthogonalPerimeter;outlineConnect=0;targetShapes=umlLifeline;portConstraint=eastwest;newEdgeStyle={&quot;curved&quot;:0,&quot;rounded&quot;:0};" parent="1" vertex="1">
          <mxGeometry x="635" y="1430" width="10" height="90" as="geometry" />
        </mxCell>
        <mxCell id="-R4UiotYeWdrvrbhJRBY-163" value="" style="html=1;points=[[0,0,0,0,5],[0,1,0,0,-5],[1,0,0,0,5],[1,1,0,0,-5]];perimeter=orthogonalPerimeter;outlineConnect=0;targetShapes=umlLifeline;portConstraint=eastwest;newEdgeStyle={&quot;curved&quot;:0,&quot;rounded&quot;:0};" parent="1" vertex="1">
          <mxGeometry x="335" y="1430" width="10" height="90" as="geometry" />
        </mxCell>
        <mxCell id="-R4UiotYeWdrvrbhJRBY-165" value="" style="endArrow=none;dashed=1;endFill=0;endSize=12;html=1;rounded=0;" parent="1" source="-R4UiotYeWdrvrbhJRBY-143" target="-R4UiotYeWdrvrbhJRBY-164" edge="1">
          <mxGeometry width="160" relative="1" as="geometry">
            <mxPoint x="135" y="1356" as="sourcePoint" />
            <mxPoint x="135" y="1570" as="targetPoint" />
          </mxGeometry>
        </mxCell>
        <mxCell id="-R4UiotYeWdrvrbhJRBY-164" value="" style="html=1;points=[[0,0,0,0,5],[0,1,0,0,-5],[1,0,0,0,5],[1,1,0,0,-5]];perimeter=orthogonalPerimeter;outlineConnect=0;targetShapes=umlLifeline;portConstraint=eastwest;newEdgeStyle={&quot;curved&quot;:0,&quot;rounded&quot;:0};" parent="1" vertex="1">
          <mxGeometry x="130" y="1430" width="10" height="90" as="geometry" />
        </mxCell>
        <mxCell id="-R4UiotYeWdrvrbhJRBY-167" value="Correct information" style="html=1;verticalAlign=bottom;endArrow=block;curved=0;rounded=0;dashed=1;" parent="1" edge="1">
          <mxGeometry width="80" relative="1" as="geometry">
            <mxPoint x="825" y="1480" as="sourcePoint" />
            <mxPoint x="645" y="1480" as="targetPoint" />
          </mxGeometry>
        </mxCell>
        <mxCell id="-R4UiotYeWdrvrbhJRBY-168" value="Correct information" style="html=1;verticalAlign=bottom;endArrow=block;curved=0;rounded=0;dashed=1;" parent="1" edge="1">
          <mxGeometry width="80" relative="1" as="geometry">
            <mxPoint x="635" y="1490" as="sourcePoint" />
            <mxPoint x="345" y="1490" as="targetPoint" />
          </mxGeometry>
        </mxCell>
        <mxCell id="-R4UiotYeWdrvrbhJRBY-169" value="Login to home page" style="html=1;verticalAlign=bottom;endArrow=block;curved=0;rounded=0;dashed=1;" parent="1" target="-R4UiotYeWdrvrbhJRBY-164" edge="1">
          <mxGeometry width="80" relative="1" as="geometry">
            <mxPoint x="335" y="1510" as="sourcePoint" />
            <mxPoint x="145" y="1510" as="targetPoint" />
          </mxGeometry>
        </mxCell>
        <mxCell id="-R4UiotYeWdrvrbhJRBY-170" value="&lt;div&gt;incorrect&lt;/div&gt;&lt;div&gt;information&lt;br&gt;&lt;/div&gt;" style="text;html=1;align=center;verticalAlign=middle;resizable=0;points=[];autosize=1;strokeColor=none;fillColor=none;" parent="1" vertex="1">
          <mxGeometry x="50" y="1285" width="80" height="40" as="geometry" />
        </mxCell>
        <mxCell id="-R4UiotYeWdrvrbhJRBY-171" value="&lt;div&gt;correct&lt;/div&gt;&lt;div&gt;information&lt;br&gt;&lt;/div&gt;" style="text;html=1;align=center;verticalAlign=middle;resizable=0;points=[];autosize=1;strokeColor=none;fillColor=none;" parent="1" vertex="1">
          <mxGeometry x="50" y="1400" width="80" height="40" as="geometry" />
        </mxCell>
      </root>
    </mxGraphModel>
  </diagram>
</mxfile>
